<!DOCTYPE svg PUBLIC "-//W3C//DTD SVG 1.1//EN" "http://www.w3.org/Graphics/SVG/1.1/DTD/svg11.dtd">
<!-- Uploaded to: SVG Repo, www.svgrepo.com, Transformed by: SVG Repo Mixer Tools -->
<svg fill="#000000" version="1.1" id="Capa_1" xmlns="http://www.w3.org/2000/svg" xmlns:xlink="http://www.w3.org/1999/xlink" width="800px" height="800px" viewBox="-13.41 -13.41 110.64 110.64" xml:space="preserve" stroke="#000000" transform="matrix(1, 0, 0, 1, 0, 0)rotate(0)" stroke-width="0.0008381600000000001">
<g id="SVGRepo_bgCarrier" stroke-width="0" transform="translate(8.80068,8.80068), scale(0.79)">
<rect x="-13.41" y="-13.41" width="110.64" height="110.64" rx="55.32" fill="#81D8D0" strokewidth="0"/>
</g>
<g id="SVGRepo_tracerCarrier" stroke-linecap="round" stroke-linejoin="round"/>
<g id="SVGRepo_iconCarrier"> <g> <g> <path d="M41.908,83.816c23.146,0,41.909-18.762,41.909-41.908C83.816,18.763,65.053,0,41.908,0S0,18.763,0,41.909 C0,65.055,18.762,83.816,41.908,83.816z M11.255,50.189l5-28.5c0.097-0.544,0.615-0.909,1.158-0.812 c0.544,0.095,0.907,0.614,0.813,1.158l-3.807,21.697c2.51-3.003,6.278-4.919,10.489-4.919c7.197,0,13.1,5.598,13.615,12.667h10.77 c0.516-7.069,6.418-12.667,13.615-12.667c3.892,0,7.398,1.643,9.892,4.261l-5.032-20.978c-0.129-0.537,0.202-1.077,0.739-1.206 c0.539-0.126,1.077,0.203,1.206,0.739l6.836,28.5c0.057,0.236,0.012,0.467-0.087,0.669c0.067,0.552,0.114,1.11,0.114,1.683 c0,7.535-6.133,13.666-13.668,13.666c-7.197,0-13.101-5.598-13.615-12.666h-10.77c-0.516,7.068-6.418,12.666-13.615,12.666 c-7.536,0-13.668-6.131-13.668-13.666c0-0.574,0.047-1.135,0.116-1.69C11.267,50.607,11.218,50.404,11.255,50.189z"/> <path d="M24.908,64.146c6.433,0,11.666-5.233,11.666-11.666c0-6.434-5.233-11.667-11.666-11.667 c-6.434,0-11.668,5.234-11.668,11.667C13.24,58.913,18.474,64.146,24.908,64.146z M24.908,42.834c5.318,0,9.645,4.327,9.645,9.646 c0,0.551-0.447,1-1,1c-0.553,0-1-0.449-1-1c0-4.217-3.43-7.646-7.645-7.646c-0.553,0-1-0.448-1-1 C23.908,43.281,24.355,42.834,24.908,42.834z"/> <path d="M62.908,64.146c6.434,0,11.668-5.233,11.668-11.666c0-6.434-5.234-11.667-11.668-11.667S51.242,46.047,51.242,52.48 C51.242,58.913,56.475,64.146,62.908,64.146z M62.908,42.834c5.318,0,9.646,4.327,9.646,9.646c0,0.551-0.446,1-1,1 c-0.553,0-1-0.449-1-1c0-4.217-3.431-7.646-7.646-7.646c-0.553,0-1-0.448-1-1C61.908,43.281,62.355,42.834,62.908,42.834z"/> </g> </g> </g>
</svg>